Coordinates
version=1
nRows=29
nColumns=22
inDegrees=yes

Units are S.I. units (second, meters, Newtons, ...)
If the header above contains a line with 'inDegrees', this indicates whether rotational values are in degrees (yes) or radians (no).

endheader
time	pelvis_tilt	pelvis_list	pelvis_rotation	pelvis_tx	pelvis_ty	pelvis_tz	hip_flexion_r	hip_adduction_r	hip_rotation_r	knee_angle_r	ankle_angle_r	subtalar_angle_r	hip_flexion_l	hip_adduction_l	hip_rotation_l	knee_angle_l	ankle_angle_l	subtalar_angle_l	lumbar_extension	lumbar_bending	lumbar_rotation
      2.83000000	      4.64143410	      3.40962245	     98.90640170	      0.56576014	      0.94103327	     -0.56363290	      2.44531738	      6.74605714	    -12.48119154	    -10.12946926	      5.12344099	     -2.60067755	     17.71661507	     -7.28377837	      3.44256648	    -43.18343959	     11.71388706	     -0.04935847	    -10.37213237	      3.45427674	      0.43313583
      2.84000000	      4.60828735	      3.40597146	     98.90680949	      0.56590168	      0.94115402	     -0.56595013	      2.12970049	      6.79259841	    -12.40411629	     -9.83635248	      5.13554601	     -2.73576635	     17.21617939	     -7.37617259	      3.17757402	    -40.89495070	     12.25840216	     -0.18968265	    -10.37897806	      3.40549838	      0.51092304
      2.85000000	      4.58120009	      3.39486043	     98.87613090	      0.56602871	      0.94122651	     -0.56825733	      1.83343115	      6.83407170	    -12.34290513	     -9.56739770	      5.23938380	     -2.79566473	     16.69823440	     -7.49455179	      2.86500468	    -38.72839486	     12.71619548	     -0.33327804	    -10.35851988	      3.35678578	      0.60653727
      2.86000000	      4.57557542	      3.41206201	     98.83581390	      0.56609613	      0.94134688	     -0.57062817	      1.45632732	      6.90749592	    -12.25314615	     -9.20140091	      5.27167711	     -2.80385311	     16.14005833	     -7.65959208	      2.48420421	    -36.72622663	     13.05182955	     -0.53492712	    -10.33676148	      3.33991014	      0.64693619
      2.87000000	      4.56993485	      3.40675571	     98.75449749	      0.56616029	      0.94141103	     -0.57296607	      1.12028520	      6.96586003	    -12.14885877	     -8.86884289	      5.37465408	     -2.75726028	     15.59650479	     -7.82505287	      2.05846998	    -34.91683026	     13.26416568	     -0.70591873	    -10.27519526	      3.31190599	      0.72321902
      2.88000000	      4.57696322	      3.39595328	     98.65704480	      0.56615617	      0.94145499	     -0.57531014	      0.76917800	      7.03236338	    -12.01727257	     -8.49292465	      5.43299178	     -2.68531665	     15.07227418	     -8.00399314	      1.57283198	    -33.34002656	     13.35273984	     -0.86632547	    -10.18450282	      3.30387336	      0.75003201
      2.89000000	      4.58822314	      3.36938482	     98.53989224	      0.56610043	      0.94145422	     -0.57762092	      0.43793254	      7.09082096	    -11.86814300	     -8.12001808	      5.48819242	     -2.60052770	     14.58412059	     -8.17704165	      1.04850427	    -32.00610394	     13.32937084	     -0.98769195	    -10.06301125	      3.29829542	      0.74417502
      2.90000000	      4.60087372	      3.30576763	     98.39957413	      0.56601944	      0.94138670	     -0.57988867	      0.15717901	      7.13644826	    -11.69481917	     -7.76334851	      5.54152732	     -2.52111426	     14.14881224	     -8.32631867	      0.52854755	    -30.89530447	     13.20207215	     -1.06328067	     -9.88935721	      3.28355119	      0.72763149
      2.91000000	      4.62018289	      3.23656302	     98.24454363	      0.56588453	      0.94129580	     -0.58212322	     -0.10998201	      7.17849179	    -11.51331045	     -7.41622544	      5.58389813	     -2.44201126	     13.74158692	     -8.46515735	     -0.00013605	    -30.00152332	     13.03042964	     -1.11689478	     -9.70115295	      3.27673544	      0.66738228
      2.92000000	      4.64115980	      3.13893502	     98.08578284	      0.56570804	      0.94115514	     -0.58430347	     -0.33208852	      7.20965986	    -11.32004766	     -7.09076194	      5.62185933	     -2.37018586	     13.38495549	     -8.57544496	     -0.48754285	    -29.28463304	     12.82584613	     -1.17008725	     -9.47693382	      3.26117177	      0.57823309
      2.93000000	      4.65990766	      3.04370226	     97.91888094	      0.56544841	      0.94101763	     -0.58643954	     -0.54560296	      7.22720015	    -11.13052286	     -6.78264103	      5.65880493	     -2.29572605	     13.04212012	     -8.65980113	     -0.95719122	    -28.71077367	     12.65129455	     -1.24681420	     -9.25565556	      3.25015574	      0.44911587
      2.94000000	      4.67035976	      2.94166377	     97.76771312	      0.56508889	      0.94088546	     -0.58853116	     -0.73953193	      7.22597527	    -10.94503992	     -6.49667026	      5.69462007	     -2.22164953	     12.72230675	     -8.70430360	     -1.37102820	    -28.23118875	     12.49847063	     -1.35897655	     -9.02561173	      3.23041644	      0.28285022
      2.95000000	      4.66575509	      2.82766396	     97.64877482	      0.56459219	      0.94074625	     -0.59054641	     -0.90738706	      7.19773034	    -10.76971802	     -6.23240876	      5.73945881	     -2.15551686	     12.44225410	     -8.69887196	     -1.71393974	    -27.82641897	     12.38281171	     -1.47670502	     -8.78905708	      3.19976063	      0.04183140
      2.96000000	      4.63509965	      2.77597750	     97.51460999	      0.56403135	      0.94075084	     -0.59256217	     -1.13691514	      7.14199871	    -10.64468173	     -5.98381206	      5.78176152	     -2.05505459	     12.08325060	     -8.66755857	     -2.09035118	    -27.43648021	     12.32544371	     -1.66635324	     -8.63166635	      3.14563394	     -0.14716685
      2.97000000	      4.58476704	      2.67678996	     97.43200395	      0.56331736	      0.94069931	     -0.59448097	     -1.29796240	      7.05097932	    -10.50838489	     -5.76392811	      5.83150555	     -1.98816603	     11.81027869	     -8.57332461	     -2.34854889	    -27.08563367	     12.28401301	     -1.77069155	     -8.42695722	      3.07442778	     -0.42601907
      2.98000000	      4.50390632	      2.64965081	     97.32742632	      0.56257847	      0.94080787	     -0.59639210	     -1.52839632	      6.93195911	    -10.41142510	     -5.56312560	      5.88685014	     -1.88696345	     11.44977327	     -8.46205379	     -2.66267988	    -26.73281733	     12.26730231	     -1.91004185	     -8.31843139	      2.97504449	     -0.64461608
      2.99000000	      4.41193963	      2.57140328	     97.24827220	      0.56177717	      0.94084896	     -0.59821744	     -1.68065373	      6.79020872	    -10.28236558	     -5.39890869	      5.94141614	     -1.82549137	     11.16831346	     -8.31070663	     -2.86901218	    -26.39919236	     12.27530494	     -1.95322673	     -8.15868458	      2.85792394	     -0.89801013
      3.00000000	      4.30508081	      2.55561511	     97.14687480	      0.56098381	      0.94101864	     -0.60004861	     -1.88879933	      6.63697582	    -10.18097399	     -5.25702560	      6.00653225	     -1.74959938	     10.81638082	     -8.16794766	     -3.13758279	    -26.06682639	     12.27685580	     -1.97698919	     -8.07829486	      2.72832768	     -1.10023530
      3.01000000	      4.20220433	      2.48740851	     97.05890284	      0.56017648	      0.94110385	     -0.60180637	     -2.01096041	      6.47841100	    -10.05480221	     -5.15891977	      6.06856463	     -1.71129820	     10.54343869	     -8.00881672	     -3.30214054	    -25.75252780	     12.30139234	     -1.94751372	     -7.94148646	      2.59473590	     -1.31123780
      3.02000000	      4.09405538	      2.45701980	     96.95264883	      0.55938906	      0.94126081	     -0.60354386	     -2.14936679	      6.31489267	     -9.93562884	     -5.10191504	      6.14826585	     -1.67691147	     10.23098944	     -7.85850734	     -3.49018422	    -25.44184204	     12.30392080	     -1.88488486	     -7.85373143	      2.45585259	     -1.48308256
      3.03000000	      3.99786722	      2.44000626	     96.84628306	      0.55859451	      0.94143758	     -0.60523573	     -2.27634118	      6.16193756	     -9.81616794	     -5.08242504	      6.22237817	     -1.65422491	      9.92134424	     -7.72344627	     -3.66032037	    -25.14857580	     12.30572392	     -1.79673247	     -7.78375323	      2.33240018	     -1.63707596
      3.04000000	      3.91102272	      2.43632228	     96.73090428	      0.55781845	      0.94163306	     -0.60686651	     -2.38922077	      6.01710496	     -9.69941425	     -5.10272036	      6.29860347	     -1.63939512	      9.61059510	     -7.60111658	     -3.82046580	    -24.86971433	     12.30234280	     -1.69442854	     -7.73398447	      2.21882415	     -1.77661231
      3.05000000	      3.83232317	      2.44634461	     96.60551929	      0.55707917	      0.94184612	     -0.60843589	     -2.49070966	      5.88054129	     -9.58326415	     -5.15852840	      6.37454247	     -1.62949401	      9.29589822	     -7.49107170	     -3.98092123	    -24.60353984	     12.29860542	     -1.58959362	     -7.70543726	      2.10976528	     -1.90553952
      3.06000000	      3.76129173	      2.46383267	     96.47454040	      0.55635583	      0.94206563	     -0.60992809	     -2.57314550	      5.74956495	     -9.46694486	     -5.25060412	      6.44749510	     -1.62216572	      8.98408991	     -7.38909009	     -4.14545942	    -24.34732721	     12.30074564	     -1.49919025	     -7.69122972	      2.00842739	     -2.02688415
      3.07000000	      3.69272218	      2.48324048	     96.33840618	      0.55564362	      0.94228576	     -0.61134436	     -2.62937277	      5.61724712	     -9.34794484	     -5.38496394	      6.52615710	     -1.61427063	      8.67188336	     -7.28662893	     -4.31785774	    -24.08499373	     12.30727556	     -1.43260521	     -7.68418840	      1.90930145	     -2.13402296
      3.08000000	      3.62527803	      2.51147149	     96.17862921	      0.55499949	      0.94251818	     -0.61266405	     -2.66788710	      5.48488278	     -9.22072329	     -5.55232294	      6.60792812	     -1.60500794	      8.34864508	     -7.18719714	     -4.51025033	    -23.81778407	     12.30961951	     -1.38791584	     -7.69835869	      1.80600575	     -2.22915762
      3.09000000	      3.55552702	      2.53655648	     96.01020045	      0.55437280	      0.94274161	     -0.61390213	     -2.67791528	      5.34544318	     -9.09017419	     -5.75582152	      6.69542538	     -1.59167034	      8.02360174	     -7.08111639	     -4.71626948	    -23.53424320	     12.31495602	     -1.37106593	     -7.71504801	      1.69897865	     -2.31122413
      3.10000000	      3.48130927	      2.56211791	     95.82987666	      0.55376775	      0.94296022	     -0.61505881	     -2.66653770	      5.19742215	     -8.94924588	     -5.98907588	      6.79044746	     -1.57274552	      7.69154352	     -6.96734349	     -4.93934016	    -23.23400891	     12.31666005	     -1.38072908	     -7.73885421	      1.58602741	     -2.37946812
      3.11000000	      3.40322013	      2.58663486	     95.63755371	      0.55317749	      0.94316834	     -0.61614125	     -2.63694450	      5.04154738	     -8.80002937	     -6.24317042	      6.89209116	     -1.54723426	      7.35391640	     -6.84564799	     -5.17418191	    -22.91788581	     12.31587368	     -1.41255427	     -7.76677671	      1.46843224	     -2.43967275
